<svg width="116" height="34" viewBox="0 0 116 34" fill="none" xmlns="http://www.w3.org/2000/svg">
<rect x="1" y="1" width="114" height="32" rx="4" fill="#202020"/>
<rect x="0.5" y="0.5" width="115" height="33" rx="4.5" stroke="black" stroke-opacity="0.1"/>
<g clip-path="url(#clip0_974_1731)">
<g clip-path="url(#clip1_974_1731)">
<path d="M8.28125 11C8.28125 10.5858 8.61704 10.25 9.03125 10.25H24.9687C25.383 10.25 25.7188 10.5858 25.7188 11V22.3438C25.7188 24.0524 24.3336 25.4375 22.625 25.4375H11.375C9.66637 25.4375 8.28125 24.0524 8.28125 22.3438V11Z" fill="url(#paint0_linear_974_1731)"/>
<mask id="mask0_974_1731" style="mask-type:alpha" maskUnits="userSpaceOnUse" x="8" y="10" width="18" height="16">
<path d="M8.28125 11C8.28125 10.5858 8.61704 10.25 9.03125 10.25H24.9687C25.383 10.25 25.7188 10.5858 25.7188 11V22.3438C25.7188 24.0524 24.3336 25.4375 22.625 25.4375H11.375C9.66637 25.4375 8.28125 24.0524 8.28125 22.3438V11Z" fill="url(#paint1_linear_974_1731)"/>
</mask>
<g mask="url(#mask0_974_1731)">
<g filter="url(#filter0_dd_974_1731)">
<path d="M12.7812 10.8125V8.5625H21.2187V10.8125" stroke="url(#paint2_linear_974_1731)" stroke-width="1.125" stroke-linecap="round"/>
</g>
</g>
<g filter="url(#filter1_dd_974_1731)">
<path d="M16.719 14.1875H13.344V17.5625H16.719V14.1875Z" fill="#F25022"/>
<path d="M20.6562 14.1875H17.2812V17.5625H20.6562V14.1875Z" fill="#7FBA00"/>
<path d="M20.6562 18.125H17.2812V21.5H20.6562V18.125Z" fill="#FFB900"/>
<path d="M16.7188 18.125H13.3438V21.5H16.7188V18.125Z" fill="#00A4EF"/>
</g>
<path d="M12.7812 10.8125V9.125C12.7812 8.81434 13.0331 8.5625 13.3438 8.5625H20.6563C20.9669 8.5625 21.2188 8.81434 21.2188 9.125V10.8125" stroke="url(#paint3_linear_974_1731)" stroke-width="1.125" stroke-linecap="round"/>
<rect x="13.3438" y="8" width="7.3125" height="1.125" fill="url(#paint4_linear_974_1731)"/>
<mask id="mask1_974_1731" style="mask-type:alpha" maskUnits="userSpaceOnUse" x="13" y="8" width="8" height="2">
<rect x="13.3438" y="8" width="7.3125" height="1.125" fill="url(#paint5_linear_974_1731)"/>
</mask>
<g mask="url(#mask1_974_1731)">
<g filter="url(#filter2_dd_974_1731)">
<rect x="11.7189" y="8.56274" width="1.625" height="2.8125" fill="#C4C4C4"/>
</g>
</g>
</g>
</g>
<path d="M30.6426 13V8.09863H31.9961C32.8597 8.09863 33.5068 8.29801 33.9375 8.69678C34.3704 9.09326 34.5869 9.69027 34.5869 10.4878C34.5869 11.2443 34.3465 11.8527 33.8657 12.313C33.3872 12.771 32.7458 13 31.9414 13H30.6426ZM31.2168 8.61816V12.4805H31.9482C32.5908 12.4805 33.091 12.3084 33.4487 11.9644C33.8065 11.6203 33.9854 11.1326 33.9854 10.5015C33.9854 9.87256 33.8179 9.40202 33.4829 9.08984C33.1502 8.77539 32.6501 8.61816 31.9824 8.61816H31.2168ZM36.9385 13.082C36.4212 13.082 36.0076 12.9191 35.6978 12.5933C35.3901 12.2651 35.2363 11.8311 35.2363 11.291C35.2363 10.7054 35.3958 10.2474 35.7148 9.91699C36.0339 9.58659 36.4691 9.42025 37.0205 9.41797C37.5423 9.41569 37.9491 9.57633 38.2407 9.8999C38.5347 10.2235 38.6816 10.6689 38.6816 11.2363C38.6816 11.7969 38.5233 12.2446 38.2065 12.5796C37.8921 12.9146 37.4694 13.082 36.9385 13.082ZM36.9795 12.6104C37.3418 12.6104 37.6198 12.493 37.8135 12.2583C38.0094 12.0213 38.1074 11.6875 38.1074 11.2568C38.1074 10.8171 38.0094 10.4798 37.8135 10.2451C37.6175 10.0081 37.3395 9.88965 36.9795 9.88965C36.6195 9.88965 36.3346 10.0127 36.125 10.2588C35.9154 10.5049 35.8105 10.8421 35.8105 11.2705C35.8105 11.6852 35.9165 12.0122 36.1284 12.2515C36.3403 12.4907 36.624 12.6104 36.9795 12.6104ZM43.9863 9.5L42.937 13H42.356L41.6313 10.4878C41.6131 10.424 41.6006 10.3704 41.5938 10.3271C41.5892 10.2816 41.5846 10.2292 41.5801 10.1699H41.5664C41.5618 10.2292 41.5539 10.2804 41.5425 10.3237C41.5311 10.367 41.5151 10.4217 41.4946 10.4878L40.7119 13H40.1514L39.0918 9.5H39.6797L40.4043 12.1318C40.4157 12.1706 40.4248 12.2161 40.4316 12.2686C40.4408 12.321 40.4476 12.3802 40.4521 12.4463H40.4795C40.484 12.3962 40.4909 12.3449 40.5 12.2925C40.5091 12.2378 40.5228 12.182 40.541 12.125L41.3477 9.5H41.8604L42.585 12.1387C42.5964 12.182 42.6055 12.2298 42.6123 12.2822C42.6214 12.3324 42.6294 12.3893 42.6362 12.4531H42.6636C42.6659 12.4076 42.6715 12.3586 42.6807 12.3062C42.6921 12.2537 42.7057 12.1979 42.7217 12.1387L43.4326 9.5H43.9863ZM47.541 13H46.9805V11.0039C46.9805 10.6325 46.9121 10.3545 46.7754 10.1699C46.641 9.98307 46.4382 9.88965 46.167 9.88965C45.8867 9.88965 45.6543 9.99561 45.4697 10.2075C45.2874 10.4172 45.1963 10.6826 45.1963 11.0039V13H44.6357V9.5H45.1963V10.0811H45.21C45.3421 9.86003 45.5039 9.69482 45.6953 9.58545C45.8867 9.4738 46.1077 9.41797 46.3584 9.41797C46.7412 9.41797 47.034 9.54215 47.2368 9.79053C47.4396 10.0366 47.541 10.3932 47.541 10.8604V13ZM48.6006 13V7.81836H49.1611V13H48.6006ZM51.7588 13.082C51.2415 13.082 50.828 12.9191 50.5181 12.5933C50.2104 12.2651 50.0566 11.8311 50.0566 11.291C50.0566 10.7054 50.2161 10.2474 50.5352 9.91699C50.8542 9.58659 51.2894 9.42025 51.8408 9.41797C52.3626 9.41569 52.7694 9.57633 53.061 9.8999C53.355 10.2235 53.502 10.6689 53.502 11.2363C53.502 11.7969 53.3436 12.2446 53.0269 12.5796C52.7124 12.9146 52.2897 13.082 51.7588 13.082ZM51.7998 12.6104C52.1621 12.6104 52.4401 12.493 52.6338 12.2583C52.8298 12.0213 52.9277 11.6875 52.9277 11.2568C52.9277 10.8171 52.8298 10.4798 52.6338 10.2451C52.4378 10.0081 52.1598 9.88965 51.7998 9.88965C51.4398 9.88965 51.1549 10.0127 50.9453 10.2588C50.7357 10.5049 50.6309 10.8421 50.6309 11.2705C50.6309 11.6852 50.7368 12.0122 50.9487 12.2515C51.1606 12.4907 51.4443 12.6104 51.7998 12.6104ZM56.8755 13H56.3149V12.4531H56.3013C56.1805 12.6628 56.0312 12.82 55.8535 12.9248C55.6781 13.0296 55.473 13.082 55.2383 13.082C54.9102 13.082 54.6447 12.9863 54.4419 12.7949C54.2391 12.6035 54.1377 12.3494 54.1377 12.0327C54.1377 11.7342 54.2402 11.487 54.4453 11.291C54.6504 11.0951 54.9409 10.9697 55.3169 10.915L56.3149 10.7817V10.7031C56.3149 10.4092 56.2466 10.2007 56.1099 10.0776C55.9731 9.95231 55.7909 9.88965 55.563 9.88965C55.3807 9.88965 55.2052 9.92383 55.0366 9.99219C54.868 10.0605 54.7096 10.1654 54.5615 10.3066L54.2334 9.96826C54.4294 9.77913 54.6379 9.64014 54.8589 9.55127C55.0799 9.4624 55.326 9.41797 55.5972 9.41797C56.021 9.41797 56.34 9.52734 56.5542 9.74609C56.7684 9.96257 56.8755 10.2884 56.8755 10.7236V13ZM56.3149 11.5781V11.2295L55.4707 11.3457C55.2132 11.3822 55.0195 11.4471 54.8896 11.5405C54.7598 11.634 54.6948 11.7809 54.6948 11.9814C54.6948 12.1911 54.7552 12.3517 54.876 12.4634C54.999 12.5728 55.1483 12.6274 55.3237 12.6274C55.6268 12.6274 55.8672 12.5283 56.0449 12.3301C56.2249 12.1318 56.3149 11.8812 56.3149 11.5781ZM60.3721 12.4053C60.2422 12.6309 60.077 12.8006 59.8765 12.9146C59.6782 13.0262 59.4424 13.082 59.1689 13.082C58.7292 13.082 58.3771 12.9259 58.1128 12.6138C57.8507 12.2993 57.7197 11.8721 57.7197 11.332C57.7197 10.7533 57.8656 10.2896 58.1572 9.94092C58.4489 9.59229 58.8374 9.41797 59.3228 9.41797C59.5643 9.41797 59.7716 9.46582 59.9448 9.56152C60.1203 9.65495 60.2627 9.79622 60.3721 9.98535H60.3857V7.81836H60.9463V13H60.3857V12.4053H60.3721ZM58.2939 11.3047C58.2939 11.708 58.3874 12.027 58.5742 12.2617C58.7633 12.4941 59.0163 12.6104 59.333 12.6104C59.6475 12.6104 59.9015 12.4976 60.0952 12.272C60.2889 12.0464 60.3857 11.7616 60.3857 11.4175V10.9014C60.3857 10.6188 60.2912 10.3796 60.1021 10.1836C59.9152 9.98763 59.6794 9.88965 59.3945 9.88965C59.0527 9.88965 58.7839 10.015 58.5879 10.2656C58.3919 10.5163 58.2939 10.8626 58.2939 11.3047ZM65.6733 8.27637C65.6095 8.25586 65.5514 8.24105 65.499 8.23193C65.4489 8.22282 65.3953 8.21826 65.3384 8.21826C65.147 8.21826 65.0046 8.26953 64.9111 8.37207C64.8177 8.47461 64.771 8.625 64.771 8.82324V9.5H65.5913V9.97852H64.771V13H64.2139V9.97852H63.6157V9.5H64.2139V8.7959C64.2139 8.46549 64.3153 8.20801 64.5181 8.02344C64.7209 7.83659 64.9989 7.74316 65.3521 7.74316C65.4386 7.74316 65.5173 7.75 65.5879 7.76367C65.6585 7.77507 65.7314 7.79329 65.8066 7.81836L65.6733 8.27637ZM67.9224 9.97852C67.8791 9.96484 67.8403 9.95573 67.8062 9.95117C67.772 9.94434 67.7287 9.94092 67.6763 9.94092C67.3914 9.94092 67.167 10.0628 67.0029 10.3066C66.8389 10.5482 66.7568 10.8512 66.7568 11.2158V13H66.1963V9.5H66.7568V10.1938H66.7705C66.8503 9.94775 66.9722 9.7609 67.1362 9.6333C67.3003 9.50342 67.4894 9.43848 67.7036 9.43848C67.7743 9.43848 67.8335 9.44189 67.8813 9.44873C67.9315 9.45557 67.9759 9.46582 68.0146 9.47949L67.9224 9.97852ZM70.0928 13.082C69.5755 13.082 69.1619 12.9191 68.8521 12.5933C68.5444 12.2651 68.3906 11.8311 68.3906 11.291C68.3906 10.7054 68.5501 10.2474 68.8691 9.91699C69.1882 9.58659 69.6234 9.42025 70.1748 9.41797C70.6966 9.41569 71.1034 9.57633 71.395 9.8999C71.689 10.2235 71.8359 10.6689 71.8359 11.2363C71.8359 11.7969 71.6776 12.2446 71.3608 12.5796C71.0464 12.9146 70.6237 13.082 70.0928 13.082ZM70.1338 12.6104C70.4961 12.6104 70.7741 12.493 70.9678 12.2583C71.1637 12.0213 71.2617 11.6875 71.2617 11.2568C71.2617 10.8171 71.1637 10.4798 70.9678 10.2451C70.7718 10.0081 70.4938 9.88965 70.1338 9.88965C69.7738 9.88965 69.4889 10.0127 69.2793 10.2588C69.0697 10.5049 68.9648 10.8421 68.9648 11.2705C68.9648 11.6852 69.0708 12.0122 69.2827 12.2515C69.4946 12.4907 69.7783 12.6104 70.1338 12.6104ZM77.7012 13H77.1406V10.9902C77.1406 10.6029 77.0802 10.3226 76.9595 10.1494C76.841 9.97624 76.6405 9.88965 76.3579 9.88965C76.1187 9.88965 75.9147 9.99902 75.7461 10.2178C75.5798 10.4365 75.4966 10.6986 75.4966 11.0039V13H74.936V10.9219C74.936 10.5778 74.87 10.3203 74.7378 10.1494C74.6056 9.97624 74.4062 9.88965 74.1396 9.88965C73.8936 9.88965 73.6908 9.99333 73.5312 10.2007C73.3717 10.4058 73.292 10.6735 73.292 11.0039V13H72.7314V9.5H73.292V10.0537H73.3057C73.431 9.8418 73.5837 9.68343 73.7637 9.57861C73.946 9.47152 74.1556 9.41797 74.3926 9.41797C74.6318 9.41797 74.8403 9.48519 75.0181 9.61963C75.1958 9.75179 75.3177 9.92611 75.3838 10.1426C75.5137 9.90104 75.6755 9.71989 75.8691 9.59912C76.0628 9.47835 76.2884 9.41797 76.5459 9.41797C76.931 9.41797 77.2192 9.53646 77.4106 9.77344C77.6043 10.0104 77.7012 10.367 77.7012 10.8433V13ZM82.3496 12.959C82.2539 12.9977 82.1593 13.0262 82.0659 13.0444C81.9748 13.0649 81.8711 13.0752 81.7549 13.0752C81.4769 13.0752 81.2581 12.9943 81.0986 12.8325C80.9414 12.6685 80.8628 12.4269 80.8628 12.1079V9.97852H80.2612V9.5H80.8628V8.64551L81.4233 8.46436V9.5H82.3052V9.97852H81.4233V12.043C81.4233 12.2435 81.4587 12.3882 81.5293 12.4771C81.6022 12.5659 81.7104 12.6104 81.854 12.6104C81.9224 12.6104 81.9884 12.6024 82.0522 12.5864C82.116 12.5705 82.1696 12.5522 82.2129 12.5317L82.3496 12.959ZM85.959 13H85.3984V10.9834C85.3984 10.6188 85.3301 10.3454 85.1934 10.1631C85.0589 9.98079 84.8561 9.88965 84.585 9.88965C84.3115 9.88965 84.0814 9.99561 83.8945 10.2075C83.7077 10.4172 83.6143 10.6872 83.6143 11.0176V13H83.0537V7.81836H83.6143V10.0811H83.6279C83.7624 9.86003 83.9253 9.69482 84.1167 9.58545C84.3081 9.4738 84.528 9.41797 84.7764 9.41797C85.1706 9.41797 85.4657 9.53646 85.6616 9.77344C85.8599 10.0104 85.959 10.367 85.959 10.8433V13ZM89.8315 11.3765H87.3569C87.366 11.7707 87.4697 12.0749 87.668 12.2891C87.8685 12.501 88.1488 12.6069 88.5088 12.6069C88.666 12.6069 88.8232 12.5841 88.9805 12.5386C89.14 12.4907 89.2972 12.4155 89.4521 12.313L89.7119 12.7129C89.5137 12.8405 89.3154 12.9339 89.1172 12.9932C88.9189 13.0524 88.7013 13.082 88.4644 13.082C87.9357 13.082 87.5233 12.9248 87.2271 12.6104C86.9308 12.2959 86.7816 11.8573 86.7793 11.2944C86.777 10.7316 86.9251 10.2782 87.2236 9.93408C87.5244 9.59001 87.9141 9.41797 88.3926 9.41797C88.8483 9.41797 89.2015 9.56722 89.4521 9.86572C89.7051 10.1619 89.8315 10.5732 89.8315 11.0996V11.3765ZM89.2573 10.9185C89.255 10.5949 89.1764 10.3431 89.0215 10.1631C88.8665 9.98079 88.6535 9.88965 88.3823 9.88965C88.1157 9.88965 87.889 9.98307 87.7021 10.1699C87.5176 10.3545 87.4048 10.604 87.3638 10.9185H89.2573Z" fill="white" fill-opacity="0.786"/>
<path d="M39.2275 25H37.96V20.0854C37.96 19.8634 37.9653 19.6217 37.9761 19.3604C37.9904 19.0954 38.0083 18.8143 38.0298 18.5171H37.9976C37.9546 18.7212 37.9134 18.8966 37.874 19.0435C37.8382 19.1867 37.8024 19.3013 37.7666 19.3872L35.5054 25H34.6245L32.3525 19.4355C32.3239 19.3568 32.2881 19.2404 32.2451 19.0864C32.2057 18.9325 32.1628 18.7427 32.1162 18.5171H32.084C32.1055 18.7749 32.1198 19.0488 32.127 19.3389C32.1341 19.6253 32.1377 19.9279 32.1377 20.2466V25H30.9561V17.2979H32.7607L34.7642 22.3037C34.8429 22.4935 34.9074 22.6689 34.9575 22.8301C35.0112 22.9876 35.0524 23.1344 35.0811 23.2705H35.1133C35.1777 23.0664 35.2386 22.882 35.2959 22.7173C35.3532 22.5526 35.4069 22.4093 35.457 22.2876L37.4873 17.2979H39.2275V25ZM41.6177 18.4365C41.3885 18.4365 41.1987 18.3631 41.0483 18.2163C40.8979 18.0695 40.8228 17.8887 40.8228 17.6738C40.8228 17.4518 40.8979 17.2692 41.0483 17.126C41.1987 16.9827 41.3885 16.9111 41.6177 16.9111C41.8504 16.9111 42.042 16.9827 42.1924 17.126C42.3428 17.2692 42.418 17.4518 42.418 17.6738C42.418 17.8923 42.3428 18.0749 42.1924 18.2217C42.042 18.3649 41.8504 18.4365 41.6177 18.4365ZM42.2354 25H40.9839V19.5H42.2354V25ZM47.9824 24.6616C47.7103 24.8263 47.4399 24.9445 47.1714 25.0161C46.9028 25.0913 46.611 25.1289 46.2959 25.1289C45.4508 25.1289 44.7741 24.8818 44.2656 24.3877C43.7607 23.8936 43.5083 23.2222 43.5083 22.3735C43.5083 21.4604 43.7697 20.7318 44.2925 20.1875C44.8188 19.6432 45.5278 19.3711 46.4194 19.3711C46.731 19.3711 47.0138 19.4051 47.2681 19.4731C47.5259 19.5376 47.7873 19.645 48.0522 19.7954L47.5635 20.6655C47.3773 20.5617 47.1947 20.4865 47.0156 20.4399C46.8366 20.3898 46.6414 20.3647 46.4302 20.3647C45.9038 20.3647 45.4974 20.5384 45.2109 20.8857C44.9245 21.2331 44.7812 21.6932 44.7812 22.2661C44.7812 22.8677 44.9352 23.3296 45.2432 23.6519C45.5547 23.9741 45.945 24.1353 46.4141 24.1353C46.5573 24.1353 46.722 24.1102 46.9082 24.0601C47.0944 24.0063 47.2824 23.9222 47.4722 23.8076L47.9824 24.6616ZM52.1021 20.5474C52.034 20.5295 51.9678 20.5169 51.9033 20.5098C51.8424 20.499 51.7708 20.4937 51.6885 20.4937C51.2409 20.4937 50.8971 20.6584 50.6572 20.9878C50.4173 21.3172 50.2974 21.7469 50.2974 22.2769V25H49.0459V19.5H50.2974V20.5581H50.3188C50.4478 20.1785 50.6375 19.8921 50.8882 19.6987C51.1388 19.5018 51.4342 19.4033 51.7744 19.4033C51.8711 19.4033 51.957 19.4087 52.0322 19.4194C52.111 19.4302 52.1862 19.4463 52.2578 19.4678L52.1021 20.5474ZM55.5557 25.1289C54.6963 25.1289 54.0142 24.8729 53.5093 24.3608C53.008 23.8452 52.7573 23.1559 52.7573 22.293C52.7609 21.3799 53.0223 20.6655 53.5415 20.1499C54.0607 19.6307 54.7679 19.3711 55.6631 19.3711C56.526 19.3675 57.1992 19.6217 57.6826 20.1338C58.1696 20.6423 58.4131 21.3315 58.4131 22.2017C58.4131 23.0968 58.1553 23.8094 57.6396 24.3394C57.1276 24.8657 56.4329 25.1289 55.5557 25.1289ZM55.6147 24.1353C56.1125 24.1353 56.4902 23.9723 56.748 23.6465C57.0094 23.3206 57.1401 22.8498 57.1401 22.2339C57.1401 21.6252 57.0094 21.1615 56.748 20.8428C56.4867 20.5241 56.1071 20.3647 55.6094 20.3647C55.1188 20.3647 54.7321 20.533 54.4492 20.8696C54.1699 21.2062 54.0303 21.6717 54.0303 22.2661C54.0303 22.8641 54.1699 23.326 54.4492 23.6519C54.7285 23.9741 55.117 24.1353 55.6147 24.1353ZM59.1543 24.5596L59.6968 23.6787C59.9116 23.8291 60.139 23.9508 60.3789 24.0439C60.6224 24.1335 60.8856 24.1782 61.1685 24.1782C61.4764 24.1782 61.7145 24.1227 61.8828 24.0117C62.0547 23.8971 62.1406 23.7271 62.1406 23.5015C62.1406 23.3224 62.069 23.1738 61.9258 23.0557C61.7861 22.9339 61.5462 22.8337 61.2061 22.7549C60.5186 22.5938 60.0352 22.3807 59.7559 22.1157C59.4801 21.8507 59.3423 21.5016 59.3423 21.0684C59.3423 20.5706 59.5356 20.1642 59.9224 19.8491C60.3091 19.5304 60.8158 19.3711 61.4424 19.3711C61.7539 19.3711 62.0511 19.4123 62.334 19.4946C62.6169 19.5734 62.8926 19.7005 63.1611 19.876L62.6562 20.7354C62.4199 20.585 62.2033 20.4775 62.0063 20.4131C61.8094 20.3486 61.6071 20.3164 61.3994 20.3164C61.1058 20.3164 60.8766 20.3719 60.7119 20.4829C60.5508 20.5903 60.4702 20.7407 60.4702 20.9341C60.4702 21.1382 60.5526 21.2904 60.7173 21.3906C60.8856 21.4873 61.1667 21.5822 61.5605 21.6753C62.1549 21.8185 62.59 22.0262 62.8657 22.2983C63.1414 22.5669 63.2793 22.9268 63.2793 23.3779C63.2793 23.9115 63.0841 24.3376 62.6938 24.6562C62.3071 24.9714 61.7826 25.1289 61.1201 25.1289C60.762 25.1289 60.4183 25.0824 60.0889 24.9893C59.763 24.8926 59.4515 24.7493 59.1543 24.5596ZM66.8779 25.1289C66.0186 25.1289 65.3364 24.8729 64.8315 24.3608C64.3302 23.8452 64.0796 23.1559 64.0796 22.293C64.0832 21.3799 64.3446 20.6655 64.8638 20.1499C65.383 19.6307 66.0902 19.3711 66.9854 19.3711C67.8483 19.3675 68.5215 19.6217 69.0049 20.1338C69.4919 20.6423 69.7354 21.3315 69.7354 22.2017C69.7354 23.0968 69.4775 23.8094 68.9619 24.3394C68.4499 24.8657 67.7552 25.1289 66.8779 25.1289ZM66.937 24.1353C67.4347 24.1353 67.8125 23.9723 68.0703 23.6465C68.3317 23.3206 68.4624 22.8498 68.4624 22.2339C68.4624 21.6252 68.3317 21.1615 68.0703 20.8428C67.8089 20.5241 67.4294 20.3647 66.9316 20.3647C66.4411 20.3647 66.0544 20.533 65.7715 20.8696C65.4922 21.2062 65.3525 21.6717 65.3525 22.2661C65.3525 22.8641 65.4922 23.326 65.7715 23.6519C66.0508 23.9741 66.4393 24.1353 66.937 24.1353ZM73.9839 17.8403C73.8836 17.8009 73.7923 17.7741 73.71 17.7598C73.6276 17.7419 73.5381 17.7329 73.4414 17.7329C73.1764 17.7329 72.9759 17.8099 72.8398 17.9639C72.7074 18.1143 72.6411 18.3327 72.6411 18.6191V19.5H73.9141V20.4775H72.6411V25H71.395V20.4775H70.4604V19.5H71.395V18.5547C71.395 17.9961 71.5741 17.5539 71.9321 17.228C72.2938 16.8986 72.7718 16.7339 73.3662 16.7339C73.5524 16.7339 73.7135 16.7464 73.8496 16.7715C73.9857 16.7965 74.1271 16.8324 74.2739 16.8789L73.9839 17.8403ZM77.7974 24.9248C77.6362 24.9928 77.4679 25.043 77.2925 25.0752C77.117 25.1074 76.929 25.1235 76.7285 25.1235C76.2201 25.1235 75.828 24.9893 75.5522 24.7207C75.2801 24.4486 75.144 24.0439 75.144 23.5068V20.4775H74.2202V19.5H75.144V18.1626L76.3901 17.7866V19.5H77.7061V20.4775H76.3901V23.4048C76.3901 23.6733 76.4385 23.8667 76.5352 23.9849C76.6354 24.103 76.7894 24.1621 76.9971 24.1621C77.0973 24.1621 77.1922 24.1514 77.2817 24.1299C77.3748 24.1048 77.4572 24.0744 77.5288 24.0386L77.7974 24.9248ZM81.2939 24.4468L81.8633 23.4639C82.2106 23.6787 82.5347 23.8309 82.8354 23.9204C83.1362 24.0063 83.4728 24.0493 83.8452 24.0493C84.2892 24.0493 84.6383 23.9544 84.8926 23.7646C85.1504 23.5713 85.2793 23.2956 85.2793 22.9375C85.2793 22.6117 85.1719 22.3556 84.957 22.1694C84.7458 21.9797 84.3859 21.806 83.8774 21.6484C83.0933 21.4157 82.5168 21.1274 82.1479 20.7837C81.7791 20.4399 81.5947 19.9744 81.5947 19.3872C81.5947 18.7498 81.8328 18.2217 82.3091 17.8027C82.7853 17.3802 83.4316 17.1689 84.248 17.1689C84.6061 17.1689 84.9588 17.2083 85.3062 17.2871C85.6535 17.3659 85.9972 17.4876 86.3374 17.6523L85.8594 18.6729C85.5622 18.5189 85.2775 18.4097 85.0054 18.3452C84.7368 18.2808 84.4629 18.2485 84.1836 18.2485C83.7754 18.2485 83.4531 18.3381 83.2168 18.5171C82.984 18.6961 82.8677 18.9486 82.8677 19.2744C82.8677 19.5645 82.9751 19.7936 83.1899 19.9619C83.4048 20.1266 83.7736 20.2896 84.2964 20.4507C85.0985 20.6906 85.675 20.9896 86.0259 21.3477C86.3804 21.7057 86.5576 22.1981 86.5576 22.8247C86.5576 23.4979 86.3177 24.0511 85.8379 24.4844C85.3581 24.9141 84.6742 25.1289 83.7861 25.1289C83.3421 25.1289 82.9089 25.0734 82.4863 24.9624C82.0638 24.8478 81.6663 24.6759 81.2939 24.4468ZM90.4409 24.9248C90.2798 24.9928 90.1115 25.043 89.936 25.0752C89.7606 25.1074 89.5726 25.1235 89.3721 25.1235C88.8636 25.1235 88.4715 24.9893 88.1958 24.7207C87.9237 24.4486 87.7876 24.0439 87.7876 23.5068V20.4775H86.8638V19.5H87.7876V18.1626L89.0337 17.7866V19.5H90.3496V20.4775H89.0337V23.4048C89.0337 23.6733 89.082 23.8667 89.1787 23.9849C89.279 24.103 89.4329 24.1621 89.6406 24.1621C89.7409 24.1621 89.8358 24.1514 89.9253 24.1299C90.0184 24.1048 90.1007 24.0744 90.1724 24.0386L90.4409 24.9248ZM93.8623 25.1289C93.0029 25.1289 92.3208 24.8729 91.8159 24.3608C91.3146 23.8452 91.064 23.1559 91.064 22.293C91.0675 21.3799 91.3289 20.6655 91.8481 20.1499C92.3674 19.6307 93.0745 19.3711 93.9697 19.3711C94.8327 19.3675 95.5059 19.6217 95.9893 20.1338C96.4762 20.6423 96.7197 21.3315 96.7197 22.2017C96.7197 23.0968 96.4619 23.8094 95.9463 24.3394C95.4342 24.8657 94.7396 25.1289 93.8623 25.1289ZM93.9214 24.1353C94.4191 24.1353 94.7969 23.9723 95.0547 23.6465C95.3161 23.3206 95.4468 22.8498 95.4468 22.2339C95.4468 21.6252 95.3161 21.1615 95.0547 20.8428C94.7933 20.5241 94.4137 20.3647 93.916 20.3647C93.4255 20.3647 93.0387 20.533 92.7559 20.8696C92.4766 21.2062 92.3369 21.6717 92.3369 22.2661C92.3369 22.8641 92.4766 23.326 92.7559 23.6519C93.0352 23.9741 93.4237 24.1353 93.9214 24.1353ZM101.054 20.5474C100.986 20.5295 100.92 20.5169 100.855 20.5098C100.795 20.499 100.723 20.4937 100.641 20.4937C100.193 20.4937 99.8493 20.6584 99.6094 20.9878C99.3695 21.3172 99.2495 21.7469 99.2495 22.2769V25H97.998V19.5H99.2495V20.5581H99.271C99.3999 20.1785 99.5897 19.8921 99.8403 19.6987C100.091 19.5018 100.386 19.4033 100.727 19.4033C100.823 19.4033 100.909 19.4087 100.984 19.4194C101.063 19.4302 101.138 19.4463 101.21 19.4678L101.054 20.5474ZM106.721 22.5776H102.966C102.988 23.0968 103.138 23.4925 103.417 23.7646C103.697 24.0332 104.087 24.1675 104.588 24.1675C104.792 24.1675 105.025 24.1263 105.287 24.0439C105.548 23.9616 105.806 23.8291 106.06 23.6465L106.624 24.4253C106.284 24.6724 105.938 24.8514 105.587 24.9624C105.236 25.0734 104.85 25.1289 104.427 25.1289C103.571 25.1289 102.905 24.8836 102.429 24.3931C101.953 23.8989 101.713 23.2096 101.709 22.3252C101.709 21.4443 101.955 20.7318 102.445 20.1875C102.939 19.6432 103.571 19.3711 104.341 19.3711C105.079 19.3711 105.659 19.6038 106.082 20.0693C106.508 20.5312 106.721 21.1865 106.721 22.0352V22.5776ZM105.512 21.7129C105.512 21.2402 105.408 20.8857 105.201 20.6494C104.997 20.4095 104.707 20.2896 104.331 20.2896C103.976 20.2896 103.674 20.4185 103.423 20.6763C103.176 20.9305 103.024 21.276 102.966 21.7129H105.512Z" fill="white"/>
<defs>
<filter id="filter0_dd_974_1731" x="11.0938" y="7.25" width="11.8125" height="5.625" filterUnits="userSpaceOnUse" color-interpolation-filters="sRGB">
<feFlood flood-opacity="0" result="BackgroundImageFix"/>
<feColorMatrix in="SourceAlpha" type="matrix" values="0 0 0 0 0 0 0 0 0 0 0 0 0 0 0 0 0 0 127 0" result="hardAlpha"/>
<feOffset dy="0.1875"/>
<feGaussianBlur stdDeviation="0.1875"/>
<feColorMatrix type="matrix" values="0 0 0 0 0 0 0 0 0 0 0 0 0 0 0 0 0 0 0.1 0"/>
<feBlend mode="normal" in2="BackgroundImageFix" result="effect1_dropShadow_974_1731"/>
<feColorMatrix in="SourceAlpha" type="matrix" values="0 0 0 0 0 0 0 0 0 0 0 0 0 0 0 0 0 0 127 0" result="hardAlpha"/>
<feOffset dy="0.375"/>
<feGaussianBlur stdDeviation="0.5625"/>
<feColorMatrix type="matrix" values="0 0 0 0 0 0 0 0 0 0 0 0 0 0 0 0 0 0 0.2 0"/>
<feBlend mode="normal" in2="effect1_dropShadow_974_1731" result="effect2_dropShadow_974_1731"/>
<feBlend mode="normal" in="SourceGraphic" in2="effect2_dropShadow_974_1731" result="shape"/>
</filter>
<filter id="filter1_dd_974_1731" x="12.2188" y="13.4375" width="9.5625" height="9.5625" filterUnits="userSpaceOnUse" color-interpolation-filters="sRGB">
<feFlood flood-opacity="0" result="BackgroundImageFix"/>
<feColorMatrix in="SourceAlpha" type="matrix" values="0 0 0 0 0 0 0 0 0 0 0 0 0 0 0 0 0 0 127 0" result="hardAlpha"/>
<feOffset dy="0.1875"/>
<feGaussianBlur stdDeviation="0.1875"/>
<feColorMatrix type="matrix" values="0 0 0 0 1 0 0 0 0 1 0 0 0 0 1 0 0 0 0.6 0"/>
<feBlend mode="normal" in2="BackgroundImageFix" result="effect1_dropShadow_974_1731"/>
<feColorMatrix in="SourceAlpha" type="matrix" values="0 0 0 0 0 0 0 0 0 0 0 0 0 0 0 0 0 0 127 0" result="hardAlpha"/>
<feOffset dy="0.375"/>
<feGaussianBlur stdDeviation="0.5625"/>
<feColorMatrix type="matrix" values="0 0 0 0 1 0 0 0 0 1 0 0 0 0 1 0 0 0 0.6 0"/>
<feBlend mode="normal" in2="effect1_dropShadow_974_1731" result="effect2_dropShadow_974_1731"/>
<feBlend mode="normal" in="SourceGraphic" in2="effect2_dropShadow_974_1731" result="shape"/>
</filter>
<filter id="filter2_dd_974_1731" x="10.5939" y="6.6875" width="12.8124" height="5.06274" filterUnits="userSpaceOnUse" color-interpolation-filters="sRGB">
<feFlood flood-opacity="0" result="BackgroundImageFix"/>
<feColorMatrix in="SourceAlpha" type="matrix" values="0 0 0 0 0 0 0 0 0 0 0 0 0 0 0 0 0 0 127 0" result="hardAlpha"/>
<feOffset dy="-0.75"/>
<feGaussianBlur stdDeviation="0.1875"/>
<feColorMatrix type="matrix" values="0 0 0 0 0 0 0 0 0 0 0 0 0 0 0 0 0 0 0.1 0"/>
<feBlend mode="normal" in2="BackgroundImageFix" result="effect1_dropShadow_974_1731"/>
<feColorMatrix in="SourceAlpha" type="matrix" values="0 0 0 0 0 0 0 0 0 0 0 0 0 0 0 0 0 0 127 0" result="hardAlpha"/>
<feOffset dy="-0.75"/>
<feGaussianBlur stdDeviation="0.5625"/>
<feColorMatrix type="matrix" values="0 0 0 0 0 0 0 0 0 0 0 0 0 0 0 0 0 0 0.2 0"/>
<feBlend mode="normal" in2="effect1_dropShadow_974_1731" result="effect2_dropShadow_974_1731"/>
<feBlend mode="normal" in="SourceGraphic" in2="effect2_dropShadow_974_1731" result="shape"/>
</filter>
<linearGradient id="paint0_linear_974_1731" x1="12.2443" y1="8.00639" x2="15.9039" y2="24.8132" gradientUnits="userSpaceOnUse">
<stop offset="0.270833" stop-color="white"/>
<stop offset="1" stop-color="#DFDFDF"/>
</linearGradient>
<linearGradient id="paint1_linear_974_1731" x1="17" y1="10.25" x2="20.3514" y2="25.9624" gradientUnits="userSpaceOnUse">
<stop stop-color="#0078D4"/>
<stop offset="1" stop-color="#114A8B"/>
</linearGradient>
<linearGradient id="paint2_linear_974_1731" x1="17" y1="8.5625" x2="17.1583" y2="10.9858" gradientUnits="userSpaceOnUse">
<stop stop-color="#28AFEA"/>
<stop offset="1" stop-color="#0078D4"/>
</linearGradient>
<linearGradient id="paint3_linear_974_1731" x1="17" y1="8.5625" x2="17.1583" y2="10.9858" gradientUnits="userSpaceOnUse">
<stop stop-color="#30DAFF"/>
<stop offset="1" stop-color="#0094D4"/>
</linearGradient>
<linearGradient id="paint4_linear_974_1731" x1="16.5938" y1="8" x2="16.5937" y2="9.125" gradientUnits="userSpaceOnUse">
<stop stop-color="#22BCFF"/>
<stop offset="1" stop-color="#0088F0"/>
</linearGradient>
<linearGradient id="paint5_linear_974_1731" x1="16.5938" y1="8" x2="16.5937" y2="9.125" gradientUnits="userSpaceOnUse">
<stop stop-color="#28AFEA"/>
<stop offset="1" stop-color="#3CCBF4"/>
</linearGradient>
<clipPath id="clip0_974_1731">
<rect width="18" height="18" fill="white" transform="translate(8 8)"/>
</clipPath>
<clipPath id="clip1_974_1731">
<rect width="18" height="18" fill="white" transform="translate(8 8)"/>
</clipPath>
</defs>
</svg>